<svg width="15" height="15" viewBox="0 0 15 15" fill="none" xmlns="http://www.w3.org/2000/svg">
<path d="M9.52983 9.9882L10.5798 8.9382C10.7212 8.79854 10.9002 8.70293 11.0949 8.66299C11.2896 8.62305 11.4917 8.64049 11.6767 8.7132L12.9564 9.22414C13.1433 9.30002 13.3036 9.42954 13.4171 9.59638C13.5305 9.76321 13.592 9.9599 13.5939 10.1616V12.5054C13.5928 12.6426 13.564 12.7782 13.5091 12.904C13.4542 13.0298 13.3744 13.1432 13.2746 13.2374C13.1747 13.3315 13.0569 13.4045 12.9281 13.4519C12.7993 13.4993 12.6622 13.5202 12.5251 13.5132C3.55795 12.9554 1.74858 5.36164 1.40639 2.45539C1.3905 2.31267 1.40502 2.16821 1.44897 2.0315C1.49293 1.8948 1.56533 1.76895 1.66142 1.66224C1.75751 1.55552 1.8751 1.47036 2.00646 1.41236C2.13783 1.35435 2.27998 1.32482 2.42358 1.3257H4.68764C4.88967 1.3263 5.08691 1.38733 5.25398 1.50094C5.42105 1.61454 5.55031 1.77553 5.62514 1.9632L6.13608 3.24289C6.21119 3.42714 6.23036 3.62944 6.19118 3.82452C6.15199 4.0196 6.0562 4.19881 5.91576 4.33977L4.86576 5.38977C4.86576 5.38977 5.47045 9.48195 9.52983 9.9882Z" fill="#2B7AF1"/>
</svg>
